<svg width="74" height="74" viewBox="0 0 74 74" fill="none" xmlns="http://www.w3.org/2000/svg">
<path d="M64 2C68.4183 2 72 5.58172 72 10V72H10C5.58172 72 2 68.4183 2 64V2H64Z" fill="#EEE2DF" stroke="#2E2505" stroke-width="4"/>
<path d="M22.4669 24.56C25.0589 24.496 27.2189 24.88 28.9469 25.712C30.7069 26.544 32.0989 27.728 33.1229 29.264C33.6349 30.032 34.0189 30.912 34.2749 31.904C34.3389 32.064 34.3869 32.272 34.4189 32.528C34.4829 32.784 34.4829 33.008 34.4189 33.2C34.2909 33.552 34.0669 33.76 33.7469 33.824C33.4269 33.856 33.0429 33.872 32.5949 33.872H30.0989C29.8109 33.872 29.5069 33.872 29.1869 33.872C28.8989 33.872 28.6589 33.808 28.4669 33.68C28.2109 33.552 28.0349 33.36 27.9389 33.104C27.8429 32.816 27.7149 32.528 27.5549 32.24C27.3629 31.888 27.1549 31.568 26.9309 31.28C26.7069 30.992 26.4509 30.736 26.1629 30.512C25.7149 30.224 25.2189 30 24.6749 29.84C24.4829 29.776 24.2909 29.744 24.0989 29.744C23.9069 29.744 23.7309 29.712 23.5709 29.648H23.0909C22.4509 29.648 21.9389 29.712 21.5549 29.84C20.6269 30.128 19.8749 30.576 19.2989 31.184C18.7229 31.76 18.2589 32.464 17.9069 33.296C17.7469 33.648 17.6189 34.032 17.5229 34.448C17.4589 34.832 17.3789 35.248 17.2829 35.696C17.2509 35.824 17.2349 35.952 17.2349 36.08C17.2349 36.208 17.2189 36.336 17.1869 36.464C17.1229 36.784 17.0909 37.232 17.0909 37.808C17.1229 38.384 17.1709 38.832 17.2349 39.152C17.2349 39.408 17.2509 39.584 17.2829 39.68C17.3469 39.904 17.3789 40.128 17.3789 40.352C17.4109 40.576 17.4589 40.8 17.5229 41.024C17.7789 41.76 18.0829 42.432 18.4349 43.04C18.7869 43.648 19.2349 44.16 19.7789 44.576C19.9069 44.672 20.0989 44.784 20.3549 44.912C20.7069 45.136 21.0589 45.28 21.4109 45.344C21.7949 45.408 22.2589 45.472 22.8029 45.536C22.8669 45.536 22.9629 45.536 23.0909 45.536C23.2189 45.536 23.3149 45.52 23.3789 45.488H23.8109C24.0349 45.424 24.2429 45.376 24.4349 45.344C24.6589 45.28 24.8669 45.216 25.0589 45.152C26.0189 44.736 26.7549 44.128 27.2669 43.328C27.3949 43.168 27.5069 42.992 27.6029 42.8C27.6989 42.576 27.7789 42.384 27.8429 42.224C27.9709 41.872 28.0829 41.568 28.1789 41.312C28.2749 41.024 28.4989 40.8 28.8509 40.64C29.1389 40.512 29.6029 40.464 30.2429 40.496C30.8829 40.496 31.4109 40.496 31.8269 40.496C32.0509 40.496 32.2749 40.496 32.4989 40.496C32.7549 40.464 32.9629 40.48 33.1229 40.544H33.5069C33.6349 40.576 33.7629 40.608 33.8909 40.64C34.0189 40.64 34.1149 40.672 34.1789 40.736C34.3389 40.864 34.4349 41.056 34.4669 41.312C34.5309 41.536 34.5309 41.776 34.4669 42.032C34.1789 43.088 33.8269 44.032 33.4109 44.864C32.0989 47.328 30.0029 49.04 27.1229 50C26.8029 50.096 26.4669 50.16 26.1149 50.192C25.7629 50.256 25.4109 50.336 25.0589 50.432C24.8669 50.464 24.6749 50.48 24.4829 50.48C24.2909 50.48 24.0989 50.496 23.9069 50.528H23.3789C23.2189 50.592 22.9789 50.608 22.6589 50.576C22.3389 50.576 22.0989 50.56 21.9389 50.528C21.6829 50.464 21.4429 50.432 21.2189 50.432C21.0269 50.464 20.8189 50.448 20.5949 50.384C20.4349 50.352 20.2749 50.32 20.1149 50.288C19.9549 50.288 19.7949 50.272 19.6349 50.24C19.2829 50.144 18.9469 50.048 18.6269 49.952C18.3069 49.856 18.0029 49.744 17.7149 49.616C16.2109 48.976 14.9469 48.16 13.9229 47.168C12.8989 46.144 12.0669 44.88 11.4269 43.376C11.2669 43.088 11.1389 42.784 11.0429 42.464C10.9469 42.112 10.8509 41.76 10.7549 41.408C10.7229 41.28 10.7069 41.168 10.7069 41.072C10.7069 40.944 10.6749 40.8 10.6109 40.64C10.5469 40.416 10.5149 40.192 10.5149 39.968C10.5149 39.712 10.4829 39.472 10.4189 39.248V38.432C10.3549 38.272 10.3229 38.096 10.3229 37.904C10.3229 37.68 10.3549 37.488 10.4189 37.328C10.4509 37.168 10.4509 37.024 10.4189 36.896C10.3869 36.768 10.3869 36.64 10.4189 36.512C10.4829 36.288 10.4989 36.08 10.4669 35.888C10.4669 35.696 10.4989 35.504 10.5629 35.312C10.7229 34.736 10.8509 34.192 10.9469 33.68C11.0429 33.136 11.1869 32.608 11.3789 32.096C12.0829 30.464 12.9629 29.104 14.0189 28.016C15.1069 26.928 16.4829 26.048 18.1469 25.376C18.5949 25.184 19.0589 25.056 19.5389 24.992C20.0189 24.896 20.5149 24.784 21.0269 24.656C21.2829 24.624 21.5229 24.608 21.7469 24.608C21.9709 24.608 22.2109 24.592 22.4669 24.56ZM62.1254 25.52C62.3494 25.68 62.4614 25.952 62.4614 26.336C62.4934 26.688 62.5094 27.056 62.5094 27.44V47.936C62.5094 48.192 62.4934 48.448 62.4614 48.704C62.4614 48.928 62.4614 49.168 62.4614 49.424C62.4294 49.68 62.3974 49.904 62.3654 50.096C62.3654 50.32 62.3494 50.56 62.3174 50.816C62.1894 51.264 62.0774 51.68 61.9814 52.064C61.9174 52.48 61.8054 52.864 61.6454 53.216C61.1014 54.432 60.3974 55.44 59.5334 56.24C58.7014 57.04 57.6774 57.696 56.4614 58.208C56.1094 58.368 55.7574 58.496 55.4054 58.592C55.0534 58.688 54.6854 58.784 54.3014 58.88C53.9494 58.976 53.5974 59.04 53.2454 59.072C52.8934 59.104 52.5414 59.152 52.1894 59.216C52.0614 59.216 51.9334 59.216 51.8054 59.216C51.6774 59.248 51.5334 59.264 51.3734 59.264C51.2454 59.296 51.1014 59.296 50.9414 59.264C50.7814 59.264 50.6214 59.28 50.4614 59.312C50.3014 59.344 50.0934 59.36 49.8374 59.36C49.5814 59.36 49.3734 59.344 49.2134 59.312C49.0534 59.312 48.9094 59.312 48.7814 59.312C48.6534 59.312 48.5254 59.296 48.3974 59.264C48.1414 59.2 47.8694 59.168 47.5814 59.168C47.3254 59.168 47.0854 59.136 46.8614 59.072C46.7974 59.04 46.7174 59.024 46.6214 59.024C46.5254 59.024 46.4454 59.008 46.3814 58.976C46.0614 58.912 45.7414 58.832 45.4214 58.736C45.1334 58.672 44.8454 58.576 44.5574 58.448C43.3414 57.936 42.2534 57.28 41.2934 56.48C40.3334 55.712 39.6294 54.672 39.1814 53.36C39.1174 53.264 39.0854 53.168 39.0854 53.072C39.0854 52.976 39.0694 52.896 39.0374 52.832C38.9414 52.416 38.9734 52.096 39.1334 51.872C39.3254 51.68 39.5814 51.552 39.9014 51.488C40.2214 51.424 40.5734 51.392 40.9574 51.392C41.3734 51.424 41.7574 51.44 42.1094 51.44H43.7414C43.9014 51.44 44.0294 51.44 44.1254 51.44C44.2534 51.472 44.3974 51.488 44.5574 51.488C45.0694 51.616 45.3894 51.776 45.5174 51.968C45.6454 52.192 45.8374 52.48 46.0934 52.832C46.1894 52.96 46.3334 53.12 46.5254 53.312C46.5574 53.376 46.5894 53.424 46.6214 53.456C46.6534 53.488 46.6854 53.536 46.7174 53.6C46.9734 53.792 47.2454 53.968 47.5334 54.128C47.8214 54.288 48.1414 54.432 48.4934 54.56C48.7174 54.624 48.9414 54.656 49.1654 54.656C49.3894 54.688 49.6294 54.736 49.8854 54.8H50.4134C50.6374 54.864 50.9254 54.864 51.2774 54.8C51.6294 54.768 51.9014 54.72 52.0934 54.656C52.2534 54.592 52.3814 54.56 52.4774 54.56C52.6054 54.56 52.7334 54.528 52.8614 54.464C53.5334 54.176 54.0934 53.792 54.5414 53.312C54.9894 52.832 55.3574 52.272 55.6454 51.632C55.7094 51.44 55.7574 51.248 55.7894 51.056C55.8214 50.864 55.8694 50.656 55.9334 50.432C55.9974 50.144 56.0294 49.84 56.0294 49.52C56.0614 49.168 56.0774 48.816 56.0774 48.464C56.0774 48.336 56.0774 48.208 56.0774 48.08C56.1094 47.952 56.1094 47.84 56.0774 47.744C56.0134 47.584 55.9814 47.44 55.9814 47.312C56.0134 47.184 55.9974 47.056 55.9334 46.928C55.9014 46.864 55.8534 46.816 55.7894 46.784C55.7574 46.752 55.7094 46.704 55.6454 46.64C55.3574 46.608 55.1174 46.672 54.9254 46.832C54.7654 46.992 54.6054 47.136 54.4454 47.264C54.1574 47.488 53.8694 47.696 53.5814 47.888C53.2934 48.08 52.9734 48.256 52.6214 48.416C52.2694 48.576 51.9174 48.704 51.5654 48.8C51.2134 48.896 50.8454 48.992 50.4614 49.088C50.2694 49.12 50.0774 49.152 49.8854 49.184C49.7254 49.184 49.5654 49.2 49.4054 49.232C49.2454 49.264 48.9894 49.28 48.6374 49.28C48.2854 49.28 48.0294 49.264 47.8694 49.232H47.4854C47.3894 49.2 47.2774 49.184 47.1494 49.184C47.0534 49.184 46.9414 49.168 46.8134 49.136C46.3654 49.04 45.9334 48.96 45.5174 48.896C45.1014 48.8 44.7174 48.672 44.3654 48.512C42.9894 47.968 41.8694 47.216 41.0054 46.256C40.1734 45.264 39.4694 44.08 38.8934 42.704C38.7334 42.352 38.6214 41.984 38.5574 41.6C38.4934 41.216 38.3974 40.832 38.2694 40.448C38.2694 40.288 38.2534 40.16 38.2214 40.064C38.1574 39.808 38.1254 39.536 38.1254 39.248C38.1254 38.928 38.0934 38.64 38.0294 38.384C37.9974 38.224 37.9814 38.08 37.9814 37.952C37.9814 37.792 37.9814 37.632 37.9814 37.472C37.9494 37.312 37.9334 37.12 37.9334 36.896C37.9334 36.64 37.9494 36.432 37.9814 36.272V35.792C38.0134 35.664 38.0134 35.536 37.9814 35.408C37.9814 35.28 38.0134 35.152 38.0774 35.024C38.1414 34.704 38.1894 34.4 38.2214 34.112C38.2534 33.792 38.3014 33.472 38.3654 33.152C38.5574 32.512 38.7494 31.904 38.9414 31.328C39.1654 30.752 39.4374 30.208 39.7574 29.696C39.9174 29.376 40.0934 29.088 40.2854 28.832C40.5094 28.544 40.7334 28.256 40.9574 27.968C41.0534 27.808 41.1814 27.648 41.3414 27.488C41.5334 27.328 41.7094 27.184 41.8694 27.056L42.1574 26.768C42.3174 26.64 42.4774 26.528 42.6374 26.432C42.7974 26.304 42.9574 26.192 43.1174 26.096C43.5334 25.84 43.9654 25.616 44.4134 25.424C44.8614 25.232 45.3574 25.056 45.9014 24.896C46.1574 24.8 46.4134 24.752 46.6694 24.752C46.9574 24.72 47.2294 24.672 47.4854 24.608C47.6134 24.576 47.7894 24.576 48.0134 24.608C48.2374 24.64 48.3814 24.624 48.4454 24.56C49.4694 24.528 50.3814 24.624 51.1814 24.848C52.0134 25.072 52.7494 25.392 53.3894 25.808C53.4854 25.872 53.5814 25.952 53.6774 26.048C53.7734 26.112 53.8854 26.192 54.0134 26.288C54.2054 26.448 54.3814 26.608 54.5414 26.768C54.7014 26.928 54.8934 27.072 55.1174 27.2C55.1814 27.232 55.2614 27.264 55.3574 27.296C55.4854 27.328 55.5814 27.312 55.6454 27.248C55.8054 27.184 55.9014 27.072 55.9334 26.912C55.9654 26.752 56.0134 26.592 56.0774 26.432C56.1414 26.272 56.1894 26.112 56.2214 25.952C56.2854 25.76 56.3814 25.6 56.5094 25.472C56.7014 25.344 56.9254 25.28 57.1814 25.28C57.4694 25.248 57.7574 25.232 58.0454 25.232H60.4934C60.8454 25.232 61.1494 25.248 61.4054 25.28C61.6934 25.28 61.9334 25.36 62.1254 25.52ZM55.5494 40.352C55.6774 40.064 55.7894 39.696 55.8854 39.248C55.9814 38.8 56.0454 38.336 56.0774 37.856C56.1094 37.344 56.1094 36.848 56.0774 36.368C56.0774 35.888 56.0294 35.456 55.9334 35.072C55.8694 34.944 55.8374 34.848 55.8374 34.784C55.8694 34.688 55.8694 34.576 55.8374 34.448C55.7734 34.224 55.7094 34 55.6454 33.776C55.5814 33.552 55.5014 33.344 55.4054 33.152C54.9574 32.032 54.3174 31.168 53.4854 30.56C52.6534 29.952 51.4374 29.648 49.8374 29.648C49.7734 29.712 49.6774 29.744 49.5494 29.744C49.4534 29.712 49.3574 29.712 49.2614 29.744C49.0374 29.808 48.8294 29.872 48.6374 29.936C48.4454 29.968 48.2534 30.016 48.0614 30.08C47.2294 30.432 46.5894 30.96 46.1414 31.664C45.6934 32.368 45.3254 33.152 45.0374 34.016C44.9734 34.176 44.9414 34.304 44.9414 34.4C44.9414 34.496 44.9254 34.624 44.8934 34.784C44.7974 35.136 44.7334 35.648 44.7014 36.32C44.6694 36.992 44.7014 37.536 44.7974 37.952V38.432C44.8614 38.688 44.9094 38.944 44.9414 39.2C44.9734 39.424 45.0214 39.664 45.0854 39.92C45.3734 40.752 45.7254 41.488 46.1414 42.128C46.5574 42.736 47.1334 43.232 47.8694 43.616C48.1894 43.776 48.6374 43.936 49.2134 44.096C49.4374 44.096 49.6134 44.112 49.7414 44.144C49.8054 44.144 49.9014 44.16 50.0294 44.192C50.1574 44.192 50.2534 44.176 50.3174 44.144H50.7974C51.0854 44.08 51.3574 44.032 51.6134 44C51.8694 43.968 52.1254 43.888 52.3814 43.76C53.1814 43.44 53.8214 42.992 54.3014 42.416C54.8134 41.84 55.2294 41.152 55.5494 40.352Z" fill="#2E2505"/>
</svg>
