<svg width="232" height="74" viewBox="0 0 232 74" fill="none" xmlns="http://www.w3.org/2000/svg">
<path d="M31.2481 24.56C33.8401 24.496 36.0001 24.88 37.7281 25.712C39.4881 26.544 40.8801 27.728 41.9041 29.264C42.4161 30.032 42.8001 30.912 43.0561 31.904C43.1201 32.064 43.1681 32.272 43.2001 32.528C43.2641 32.784 43.2641 33.008 43.2001 33.2C43.0721 33.552 42.8481 33.76 42.5281 33.824C42.2081 33.856 41.8241 33.872 41.3761 33.872H38.8801C38.5921 33.872 38.2881 33.872 37.9681 33.872C37.6801 33.872 37.4401 33.808 37.2481 33.68C36.9921 33.552 36.8161 33.36 36.7201 33.104C36.6241 32.816 36.4961 32.528 36.3361 32.24C36.1441 31.888 35.9361 31.568 35.7121 31.28C35.4881 30.992 35.2321 30.736 34.9441 30.512C34.4961 30.224 34.0001 30 33.4561 29.84C33.2641 29.776 33.0721 29.744 32.8801 29.744C32.6881 29.744 32.5121 29.712 32.3521 29.648H31.8721C31.2321 29.648 30.7201 29.712 30.3361 29.84C29.4081 30.128 28.6561 30.576 28.0801 31.184C27.5041 31.76 27.0401 32.464 26.6881 33.296C26.5281 33.648 26.4001 34.032 26.3041 34.448C26.2401 34.832 26.1601 35.248 26.0641 35.696C26.0321 35.824 26.0161 35.952 26.0161 36.08C26.0161 36.208 26.0001 36.336 25.9681 36.464C25.9041 36.784 25.8721 37.232 25.8721 37.808C25.9041 38.384 25.9521 38.832 26.0161 39.152C26.0161 39.408 26.0321 39.584 26.0641 39.68C26.1281 39.904 26.1601 40.128 26.1601 40.352C26.1921 40.576 26.2401 40.8 26.3041 41.024C26.5601 41.76 26.8641 42.432 27.2161 43.04C27.5681 43.648 28.0161 44.16 28.5601 44.576C28.6881 44.672 28.8801 44.784 29.1361 44.912C29.4881 45.136 29.8401 45.28 30.1921 45.344C30.5761 45.408 31.0401 45.472 31.5841 45.536C31.6481 45.536 31.7441 45.536 31.8721 45.536C32.0001 45.536 32.0961 45.52 32.1601 45.488H32.5921C32.8161 45.424 33.0241 45.376 33.2161 45.344C33.4401 45.28 33.6481 45.216 33.8401 45.152C34.8001 44.736 35.5361 44.128 36.0481 43.328C36.1761 43.168 36.2881 42.992 36.3841 42.8C36.4801 42.576 36.5601 42.384 36.6241 42.224C36.7521 41.872 36.8641 41.568 36.9601 41.312C37.0561 41.024 37.2801 40.8 37.6321 40.64C37.9201 40.512 38.3841 40.464 39.0241 40.496C39.6641 40.496 40.1921 40.496 40.6081 40.496C40.8321 40.496 41.0561 40.496 41.2801 40.496C41.5361 40.464 41.7441 40.48 41.9041 40.544H42.2881C42.4161 40.576 42.5441 40.608 42.6721 40.64C42.8001 40.64 42.8961 40.672 42.9601 40.736C43.1201 40.864 43.2161 41.056 43.2481 41.312C43.3121 41.536 43.3121 41.776 43.2481 42.032C42.9601 43.088 42.6081 44.032 42.1921 44.864C40.8801 47.328 38.7841 49.04 35.9041 50C35.5841 50.096 35.2481 50.16 34.8961 50.192C34.5441 50.256 34.1921 50.336 33.8401 50.432C33.6481 50.464 33.4561 50.48 33.2641 50.48C33.0721 50.48 32.8801 50.496 32.6881 50.528H32.1601C32.0001 50.592 31.7601 50.608 31.4401 50.576C31.1201 50.576 30.8801 50.56 30.7201 50.528C30.4641 50.464 30.2241 50.432 30.0001 50.432C29.8081 50.464 29.6001 50.448 29.3761 50.384C29.2161 50.352 29.0561 50.32 28.8961 50.288C28.7361 50.288 28.5761 50.272 28.4161 50.24C28.0641 50.144 27.7281 50.048 27.4081 49.952C27.0881 49.856 26.7841 49.744 26.4961 49.616C24.9921 48.976 23.7281 48.16 22.7041 47.168C21.6801 46.144 20.8481 44.88 20.2081 43.376C20.0481 43.088 19.9201 42.784 19.8241 42.464C19.7281 42.112 19.6321 41.76 19.5361 41.408C19.5041 41.28 19.4881 41.168 19.4881 41.072C19.4881 40.944 19.4561 40.8 19.3921 40.64C19.3281 40.416 19.2961 40.192 19.2961 39.968C19.2961 39.712 19.2641 39.472 19.2001 39.248V38.432C19.1361 38.272 19.1041 38.096 19.1041 37.904C19.1041 37.68 19.1361 37.488 19.2001 37.328C19.2321 37.168 19.2321 37.024 19.2001 36.896C19.1681 36.768 19.1681 36.64 19.2001 36.512C19.2641 36.288 19.2801 36.08 19.2481 35.888C19.2481 35.696 19.2801 35.504 19.3441 35.312C19.5041 34.736 19.6321 34.192 19.7281 33.68C19.8241 33.136 19.9681 32.608 20.1601 32.096C20.8641 30.464 21.7441 29.104 22.8001 28.016C23.8881 26.928 25.2641 26.048 26.9281 25.376C27.3761 25.184 27.8401 25.056 28.3201 24.992C28.8001 24.896 29.2961 24.784 29.8081 24.656C30.0641 24.624 30.3041 24.608 30.5281 24.608C30.7521 24.608 30.9921 24.592 31.2481 24.56ZM70.9066 25.52C71.1306 25.68 71.2426 25.952 71.2426 26.336C71.2746 26.688 71.2906 27.056 71.2906 27.44V47.936C71.2906 48.192 71.2746 48.448 71.2426 48.704C71.2426 48.928 71.2426 49.168 71.2426 49.424C71.2106 49.68 71.1786 49.904 71.1466 50.096C71.1466 50.32 71.1306 50.56 71.0986 50.816C70.9706 51.264 70.8586 51.68 70.7626 52.064C70.6986 52.48 70.5866 52.864 70.4266 53.216C69.8826 54.432 69.1786 55.44 68.3146 56.24C67.4826 57.04 66.4586 57.696 65.2426 58.208C64.8906 58.368 64.5386 58.496 64.1866 58.592C63.8346 58.688 63.4666 58.784 63.0826 58.88C62.7306 58.976 62.3786 59.04 62.0266 59.072C61.6746 59.104 61.3226 59.152 60.9706 59.216C60.8426 59.216 60.7146 59.216 60.5866 59.216C60.4586 59.248 60.3146 59.264 60.1546 59.264C60.0266 59.296 59.8826 59.296 59.7226 59.264C59.5626 59.264 59.4026 59.28 59.2426 59.312C59.0826 59.344 58.8746 59.36 58.6186 59.36C58.3626 59.36 58.1546 59.344 57.9946 59.312C57.8346 59.312 57.6906 59.312 57.5626 59.312C57.4346 59.312 57.3066 59.296 57.1786 59.264C56.9226 59.2 56.6506 59.168 56.3626 59.168C56.1066 59.168 55.8666 59.136 55.6426 59.072C55.5786 59.04 55.4986 59.024 55.4026 59.024C55.3066 59.024 55.2266 59.008 55.1626 58.976C54.8426 58.912 54.5226 58.832 54.2026 58.736C53.9146 58.672 53.6266 58.576 53.3386 58.448C52.1226 57.936 51.0346 57.28 50.0746 56.48C49.1146 55.712 48.4106 54.672 47.9626 53.36C47.8986 53.264 47.8666 53.168 47.8666 53.072C47.8666 52.976 47.8506 52.896 47.8186 52.832C47.7226 52.416 47.7546 52.096 47.9146 51.872C48.1066 51.68 48.3626 51.552 48.6826 51.488C49.0026 51.424 49.3546 51.392 49.7386 51.392C50.1546 51.424 50.5386 51.44 50.8906 51.44H52.5226C52.6826 51.44 52.8106 51.44 52.9066 51.44C53.0346 51.472 53.1786 51.488 53.3386 51.488C53.8506 51.616 54.1706 51.776 54.2986 51.968C54.4266 52.192 54.6186 52.48 54.8746 52.832C54.9706 52.96 55.1146 53.12 55.3066 53.312C55.3386 53.376 55.3706 53.424 55.4026 53.456C55.4346 53.488 55.4666 53.536 55.4986 53.6C55.7546 53.792 56.0266 53.968 56.3146 54.128C56.6026 54.288 56.9226 54.432 57.2746 54.56C57.4986 54.624 57.7226 54.656 57.9466 54.656C58.1706 54.688 58.4106 54.736 58.6666 54.8H59.1946C59.4186 54.864 59.7066 54.864 60.0586 54.8C60.4106 54.768 60.6826 54.72 60.8746 54.656C61.0346 54.592 61.1626 54.56 61.2586 54.56C61.3866 54.56 61.5146 54.528 61.6426 54.464C62.3146 54.176 62.8746 53.792 63.3226 53.312C63.7706 52.832 64.1386 52.272 64.4266 51.632C64.4906 51.44 64.5386 51.248 64.5706 51.056C64.6026 50.864 64.6506 50.656 64.7146 50.432C64.7786 50.144 64.8106 49.84 64.8106 49.52C64.8426 49.168 64.8586 48.816 64.8586 48.464C64.8586 48.336 64.8586 48.208 64.8586 48.08C64.8906 47.952 64.8906 47.84 64.8586 47.744C64.7946 47.584 64.7626 47.44 64.7626 47.312C64.7946 47.184 64.7786 47.056 64.7146 46.928C64.6826 46.864 64.6346 46.816 64.5706 46.784C64.5386 46.752 64.4906 46.704 64.4266 46.64C64.1386 46.608 63.8986 46.672 63.7066 46.832C63.5466 46.992 63.3866 47.136 63.2266 47.264C62.9386 47.488 62.6506 47.696 62.3626 47.888C62.0746 48.08 61.7546 48.256 61.4026 48.416C61.0506 48.576 60.6986 48.704 60.3466 48.8C59.9946 48.896 59.6266 48.992 59.2426 49.088C59.0506 49.12 58.8586 49.152 58.6666 49.184C58.5066 49.184 58.3466 49.2 58.1866 49.232C58.0266 49.264 57.7706 49.28 57.4186 49.28C57.0666 49.28 56.8106 49.264 56.6506 49.232H56.2666C56.1706 49.2 56.0586 49.184 55.9306 49.184C55.8346 49.184 55.7226 49.168 55.5946 49.136C55.1466 49.04 54.7146 48.96 54.2986 48.896C53.8826 48.8 53.4986 48.672 53.1466 48.512C51.7706 47.968 50.6506 47.216 49.7866 46.256C48.9546 45.264 48.2506 44.08 47.6746 42.704C47.5146 42.352 47.4026 41.984 47.3386 41.6C47.2746 41.216 47.1786 40.832 47.0506 40.448C47.0506 40.288 47.0346 40.16 47.0026 40.064C46.9386 39.808 46.9066 39.536 46.9066 39.248C46.9066 38.928 46.8746 38.64 46.8106 38.384C46.7786 38.224 46.7626 38.08 46.7626 37.952C46.7626 37.792 46.7626 37.632 46.7626 37.472C46.7306 37.312 46.7146 37.12 46.7146 36.896C46.7146 36.64 46.7306 36.432 46.7626 36.272V35.792C46.7946 35.664 46.7946 35.536 46.7626 35.408C46.7626 35.28 46.7946 35.152 46.8586 35.024C46.9226 34.704 46.9706 34.4 47.0026 34.112C47.0346 33.792 47.0826 33.472 47.1466 33.152C47.3386 32.512 47.5306 31.904 47.7226 31.328C47.9466 30.752 48.2186 30.208 48.5386 29.696C48.6986 29.376 48.8746 29.088 49.0666 28.832C49.2906 28.544 49.5146 28.256 49.7386 27.968C49.8346 27.808 49.9626 27.648 50.1226 27.488C50.3146 27.328 50.4906 27.184 50.6506 27.056L50.9386 26.768C51.0986 26.64 51.2586 26.528 51.4186 26.432C51.5786 26.304 51.7386 26.192 51.8986 26.096C52.3146 25.84 52.7466 25.616 53.1946 25.424C53.6426 25.232 54.1386 25.056 54.6826 24.896C54.9386 24.8 55.1946 24.752 55.4506 24.752C55.7386 24.72 56.0106 24.672 56.2666 24.608C56.3946 24.576 56.5706 24.576 56.7946 24.608C57.0186 24.64 57.1626 24.624 57.2266 24.56C58.2506 24.528 59.1626 24.624 59.9626 24.848C60.7946 25.072 61.5306 25.392 62.1706 25.808C62.2666 25.872 62.3626 25.952 62.4586 26.048C62.5546 26.112 62.6666 26.192 62.7946 26.288C62.9866 26.448 63.1626 26.608 63.3226 26.768C63.4826 26.928 63.6746 27.072 63.8986 27.2C63.9626 27.232 64.0426 27.264 64.1386 27.296C64.2666 27.328 64.3626 27.312 64.4266 27.248C64.5866 27.184 64.6826 27.072 64.7146 26.912C64.7466 26.752 64.7946 26.592 64.8586 26.432C64.9226 26.272 64.9706 26.112 65.0026 25.952C65.0666 25.76 65.1626 25.6 65.2906 25.472C65.4826 25.344 65.7066 25.28 65.9626 25.28C66.2506 25.248 66.5386 25.232 66.8266 25.232H69.2746C69.6266 25.232 69.9306 25.248 70.1866 25.28C70.4746 25.28 70.7146 25.36 70.9066 25.52ZM64.3306 40.352C64.4586 40.064 64.5706 39.696 64.6666 39.248C64.7626 38.8 64.8266 38.336 64.8586 37.856C64.8906 37.344 64.8906 36.848 64.8586 36.368C64.8586 35.888 64.8106 35.456 64.7146 35.072C64.6506 34.944 64.6186 34.848 64.6186 34.784C64.6506 34.688 64.6506 34.576 64.6186 34.448C64.5546 34.224 64.4906 34 64.4266 33.776C64.3626 33.552 64.2826 33.344 64.1866 33.152C63.7386 32.032 63.0986 31.168 62.2666 30.56C61.4346 29.952 60.2186 29.648 58.6186 29.648C58.5546 29.712 58.4586 29.744 58.3306 29.744C58.2346 29.712 58.1386 29.712 58.0426 29.744C57.8186 29.808 57.6106 29.872 57.4186 29.936C57.2266 29.968 57.0346 30.016 56.8426 30.08C56.0106 30.432 55.3706 30.96 54.9226 31.664C54.4746 32.368 54.1066 33.152 53.8186 34.016C53.7546 34.176 53.7226 34.304 53.7226 34.4C53.7226 34.496 53.7066 34.624 53.6746 34.784C53.5786 35.136 53.5146 35.648 53.4826 36.32C53.4506 36.992 53.4826 37.536 53.5786 37.952V38.432C53.6426 38.688 53.6906 38.944 53.7226 39.2C53.7546 39.424 53.8026 39.664 53.8666 39.92C54.1546 40.752 54.5066 41.488 54.9226 42.128C55.3386 42.736 55.9146 43.232 56.6506 43.616C56.9706 43.776 57.4186 43.936 57.9946 44.096C58.2186 44.096 58.3946 44.112 58.5226 44.144C58.5866 44.144 58.6826 44.16 58.8106 44.192C58.9386 44.192 59.0346 44.176 59.0986 44.144H59.5786C59.8666 44.08 60.1386 44.032 60.3946 44C60.6506 43.968 60.9066 43.888 61.1626 43.76C61.9626 43.44 62.6026 42.992 63.0826 42.416C63.5946 41.84 64.0106 41.152 64.3306 40.352ZM83.4504 16.112C83.6744 16.368 83.7864 16.752 83.7864 17.264C83.7864 17.776 83.7864 18.272 83.7864 18.752C83.7864 19.168 83.7864 19.6 83.7864 20.048C83.7864 20.496 83.6744 20.8 83.4504 20.96C83.2584 21.12 83.0024 21.216 82.6824 21.248C82.3944 21.28 82.0744 21.296 81.7224 21.296H79.0344C78.6824 21.296 78.3624 21.28 78.0744 21.248C77.8184 21.216 77.5944 21.12 77.4024 20.96C77.2744 20.864 77.1784 20.688 77.1144 20.432C77.0824 20.144 77.0504 19.84 77.0184 19.52C77.0184 19.168 77.0184 18.816 77.0184 18.464C77.0504 18.112 77.0664 17.808 77.0664 17.552C77.0664 17.296 77.0664 17.072 77.0664 16.88C77.0984 16.656 77.1624 16.464 77.2584 16.304C77.3224 16.176 77.4024 16.08 77.4984 16.016C77.6264 15.952 77.7544 15.888 77.8824 15.824C77.9464 15.824 78.0264 15.824 78.1224 15.824C78.2184 15.792 78.2984 15.776 78.3624 15.776H81.8664C82.1864 15.776 82.4904 15.792 82.7784 15.824C83.0664 15.856 83.2904 15.952 83.4504 16.112ZM83.7864 47.36C83.7864 48 83.7704 48.544 83.7384 48.992C83.7064 49.44 83.4184 49.744 82.8744 49.904C82.6824 49.968 82.4744 50 82.2504 50C82.0264 49.968 81.7864 49.952 81.5304 49.952H78.8424C78.5544 49.952 78.2664 49.936 77.9784 49.904C77.7224 49.872 77.5304 49.776 77.4024 49.616C77.2104 49.392 77.0984 49.12 77.0664 48.8C77.0664 48.448 77.0664 48.08 77.0664 47.696V27.44C77.0664 27.12 77.0664 26.8 77.0664 26.48C77.0664 26.16 77.1304 25.904 77.2584 25.712C77.4504 25.488 77.7224 25.344 78.0744 25.28C78.1384 25.248 78.2184 25.248 78.3144 25.28C78.4424 25.28 78.5384 25.264 78.6024 25.232H81.0024C81.1944 25.232 81.4024 25.232 81.6264 25.232C81.8824 25.2 82.0904 25.2 82.2504 25.232H82.6344C82.8264 25.296 83.0024 25.344 83.1624 25.376C83.3224 25.408 83.4504 25.504 83.5464 25.664C83.6744 25.824 83.7384 26.048 83.7384 26.336C83.7704 26.624 83.7864 26.928 83.7864 27.248V47.36ZM103.265 24.608C105.185 24.544 106.785 24.816 108.065 25.424C109.345 26.032 110.353 26.928 111.089 28.112C111.313 28.464 111.489 28.848 111.617 29.264C111.745 29.648 111.873 30.048 112.001 30.464C112.065 30.72 112.097 30.96 112.097 31.184C112.129 31.408 112.177 31.632 112.241 31.856C112.241 32.048 112.257 32.176 112.289 32.24C112.353 32.688 112.385 33.152 112.385 33.632C112.385 34.112 112.385 34.576 112.385 35.024V39.296V47.072C112.385 47.68 112.369 48.272 112.337 48.848C112.337 49.392 112.113 49.744 111.665 49.904C111.473 49.968 111.249 50 110.993 50C110.737 50 110.481 50 110.225 50H107.633C107.249 50 106.897 49.984 106.577 49.952C106.289 49.888 106.065 49.744 105.905 49.52C105.777 49.328 105.697 49.088 105.665 48.8C105.665 48.48 105.665 48.144 105.665 47.792V44.432V37.28C105.665 36.096 105.617 35.008 105.521 34.016C105.425 32.992 105.137 32.128 104.657 31.424C104.209 30.784 103.553 30.336 102.689 30.08C102.529 30.016 102.353 29.984 102.161 29.984C102.001 29.984 101.825 29.952 101.633 29.888C101.473 29.856 101.265 29.856 101.009 29.888C100.785 29.888 100.609 29.904 100.481 29.936C100.353 29.968 100.241 29.984 100.145 29.984C100.049 29.984 99.9534 30 99.8574 30.032C99.1214 30.224 98.5294 30.48 98.0814 30.8C97.0574 31.536 96.4494 32.608 96.2574 34.016C96.0654 35.424 95.9694 37.008 95.9694 38.768V44.768V47.696C95.9694 47.984 95.9694 48.272 95.9694 48.56C95.9694 48.848 95.9214 49.088 95.8254 49.28C95.6654 49.632 95.4094 49.84 95.0574 49.904C94.7054 49.968 94.2734 50 93.7614 50H91.3614C91.0094 50 90.6574 49.984 90.3054 49.952C89.9534 49.92 89.6974 49.808 89.5374 49.616C89.3134 49.328 89.2014 48.912 89.2014 48.368C89.2334 47.824 89.2494 47.312 89.2494 46.832V40.304V29.744V27.296C89.2494 26.944 89.2494 26.624 89.2494 26.336C89.2814 26.048 89.3774 25.808 89.5374 25.616C89.6014 25.52 89.6974 25.456 89.8254 25.424C89.9854 25.36 90.1454 25.312 90.3054 25.28H90.5454C90.7054 25.248 90.8654 25.232 91.0254 25.232C91.2174 25.232 91.3934 25.232 91.5534 25.232H93.5694C93.8254 25.232 94.0654 25.248 94.2894 25.28C94.5454 25.28 94.7694 25.312 94.9614 25.376C95.1854 25.472 95.3294 25.616 95.3934 25.808C95.4894 26 95.5694 26.224 95.6334 26.48C95.6654 26.608 95.6654 26.72 95.6334 26.816C95.6334 26.912 95.6654 27.008 95.7294 27.104C95.7934 27.264 95.8414 27.36 95.8734 27.392C95.9374 27.424 96.0174 27.472 96.1134 27.536C96.4654 27.568 96.7534 27.456 96.9774 27.2C97.2014 26.912 97.4414 26.688 97.6974 26.528C98.5614 25.888 99.5214 25.376 100.577 24.992C100.865 24.896 101.153 24.832 101.441 24.8C101.761 24.768 102.097 24.72 102.449 24.656C102.545 24.624 102.689 24.624 102.881 24.656C103.073 24.656 103.201 24.64 103.265 24.608ZM141.079 25.52C141.303 25.68 141.415 25.952 141.415 26.336C141.447 26.688 141.463 27.056 141.463 27.44V47.936C141.463 48.192 141.447 48.448 141.415 48.704C141.415 48.928 141.415 49.168 141.415 49.424C141.383 49.68 141.351 49.904 141.319 50.096C141.319 50.32 141.303 50.56 141.271 50.816C141.143 51.264 141.031 51.68 140.935 52.064C140.871 52.48 140.759 52.864 140.599 53.216C140.055 54.432 139.351 55.44 138.487 56.24C137.655 57.04 136.631 57.696 135.415 58.208C135.063 58.368 134.711 58.496 134.359 58.592C134.007 58.688 133.639 58.784 133.255 58.88C132.903 58.976 132.551 59.04 132.199 59.072C131.847 59.104 131.495 59.152 131.143 59.216C131.015 59.216 130.887 59.216 130.759 59.216C130.631 59.248 130.487 59.264 130.327 59.264C130.199 59.296 130.055 59.296 129.895 59.264C129.735 59.264 129.575 59.28 129.415 59.312C129.255 59.344 129.047 59.36 128.791 59.36C128.535 59.36 128.327 59.344 128.167 59.312C128.007 59.312 127.863 59.312 127.734 59.312C127.607 59.312 127.479 59.296 127.351 59.264C127.095 59.2 126.823 59.168 126.535 59.168C126.279 59.168 126.039 59.136 125.815 59.072C125.751 59.04 125.671 59.024 125.575 59.024C125.479 59.024 125.399 59.008 125.335 58.976C125.015 58.912 124.695 58.832 124.375 58.736C124.087 58.672 123.799 58.576 123.511 58.448C122.295 57.936 121.207 57.28 120.247 56.48C119.287 55.712 118.583 54.672 118.135 53.36C118.071 53.264 118.039 53.168 118.039 53.072C118.039 52.976 118.023 52.896 117.991 52.832C117.895 52.416 117.927 52.096 118.087 51.872C118.279 51.68 118.535 51.552 118.855 51.488C119.175 51.424 119.527 51.392 119.911 51.392C120.327 51.424 120.711 51.44 121.062 51.44H122.695C122.855 51.44 122.983 51.44 123.079 51.44C123.207 51.472 123.351 51.488 123.511 51.488C124.023 51.616 124.343 51.776 124.471 51.968C124.599 52.192 124.791 52.48 125.047 52.832C125.143 52.96 125.287 53.12 125.479 53.312C125.511 53.376 125.543 53.424 125.575 53.456C125.607 53.488 125.639 53.536 125.671 53.6C125.927 53.792 126.199 53.968 126.487 54.128C126.775 54.288 127.095 54.432 127.447 54.56C127.671 54.624 127.895 54.656 128.119 54.656C128.343 54.688 128.583 54.736 128.839 54.8H129.367C129.591 54.864 129.879 54.864 130.231 54.8C130.583 54.768 130.855 54.72 131.047 54.656C131.207 54.592 131.335 54.56 131.431 54.56C131.559 54.56 131.687 54.528 131.815 54.464C132.487 54.176 133.047 53.792 133.495 53.312C133.943 52.832 134.311 52.272 134.599 51.632C134.663 51.44 134.711 51.248 134.743 51.056C134.775 50.864 134.823 50.656 134.887 50.432C134.951 50.144 134.983 49.84 134.983 49.52C135.015 49.168 135.031 48.816 135.031 48.464C135.031 48.336 135.031 48.208 135.031 48.08C135.063 47.952 135.063 47.84 135.031 47.744C134.967 47.584 134.935 47.44 134.935 47.312C134.967 47.184 134.951 47.056 134.887 46.928C134.855 46.864 134.807 46.816 134.743 46.784C134.711 46.752 134.663 46.704 134.599 46.64C134.311 46.608 134.071 46.672 133.879 46.832C133.719 46.992 133.559 47.136 133.399 47.264C133.111 47.488 132.823 47.696 132.535 47.888C132.247 48.08 131.927 48.256 131.575 48.416C131.223 48.576 130.871 48.704 130.519 48.8C130.167 48.896 129.799 48.992 129.415 49.088C129.223 49.12 129.031 49.152 128.839 49.184C128.679 49.184 128.519 49.2 128.359 49.232C128.199 49.264 127.943 49.28 127.591 49.28C127.239 49.28 126.983 49.264 126.823 49.232H126.439C126.343 49.2 126.231 49.184 126.103 49.184C126.007 49.184 125.895 49.168 125.767 49.136C125.319 49.04 124.887 48.96 124.471 48.896C124.055 48.8 123.671 48.672 123.319 48.512C121.943 47.968 120.823 47.216 119.959 46.256C119.127 45.264 118.423 44.08 117.847 42.704C117.687 42.352 117.575 41.984 117.511 41.6C117.447 41.216 117.351 40.832 117.223 40.448C117.223 40.288 117.207 40.16 117.175 40.064C117.111 39.808 117.079 39.536 117.079 39.248C117.079 38.928 117.047 38.64 116.983 38.384C116.951 38.224 116.935 38.08 116.935 37.952C116.935 37.792 116.935 37.632 116.935 37.472C116.903 37.312 116.887 37.12 116.887 36.896C116.887 36.64 116.903 36.432 116.935 36.272V35.792C116.967 35.664 116.967 35.536 116.935 35.408C116.935 35.28 116.967 35.152 117.031 35.024C117.095 34.704 117.143 34.4 117.175 34.112C117.207 33.792 117.255 33.472 117.319 33.152C117.511 32.512 117.703 31.904 117.895 31.328C118.119 30.752 118.391 30.208 118.711 29.696C118.871 29.376 119.047 29.088 119.239 28.832C119.463 28.544 119.687 28.256 119.911 27.968C120.007 27.808 120.135 27.648 120.295 27.488C120.487 27.328 120.663 27.184 120.823 27.056L121.111 26.768C121.271 26.64 121.431 26.528 121.591 26.432C121.751 26.304 121.911 26.192 122.071 26.096C122.487 25.84 122.919 25.616 123.367 25.424C123.815 25.232 124.311 25.056 124.855 24.896C125.111 24.8 125.367 24.752 125.623 24.752C125.911 24.72 126.183 24.672 126.439 24.608C126.567 24.576 126.743 24.576 126.967 24.608C127.191 24.64 127.335 24.624 127.398 24.56C128.423 24.528 129.335 24.624 130.135 24.848C130.967 25.072 131.703 25.392 132.343 25.808C132.439 25.872 132.535 25.952 132.631 26.048C132.727 26.112 132.839 26.192 132.967 26.288C133.159 26.448 133.335 26.608 133.495 26.768C133.655 26.928 133.847 27.072 134.071 27.2C134.135 27.232 134.215 27.264 134.311 27.296C134.439 27.328 134.535 27.312 134.599 27.248C134.759 27.184 134.855 27.072 134.887 26.912C134.919 26.752 134.967 26.592 135.031 26.432C135.095 26.272 135.143 26.112 135.175 25.952C135.239 25.76 135.335 25.6 135.463 25.472C135.655 25.344 135.879 25.28 136.135 25.28C136.423 25.248 136.711 25.232 136.999 25.232H139.447C139.799 25.232 140.103 25.248 140.359 25.28C140.647 25.28 140.887 25.36 141.079 25.52ZM134.503 40.352C134.631 40.064 134.743 39.696 134.839 39.248C134.935 38.8 134.999 38.336 135.031 37.856C135.063 37.344 135.063 36.848 135.031 36.368C135.031 35.888 134.983 35.456 134.887 35.072C134.823 34.944 134.791 34.848 134.791 34.784C134.823 34.688 134.823 34.576 134.791 34.448C134.727 34.224 134.663 34 134.599 33.776C134.535 33.552 134.455 33.344 134.359 33.152C133.911 32.032 133.271 31.168 132.439 30.56C131.607 29.952 130.391 29.648 128.791 29.648C128.727 29.712 128.631 29.744 128.503 29.744C128.407 29.712 128.311 29.712 128.215 29.744C127.991 29.808 127.783 29.872 127.591 29.936C127.399 29.968 127.207 30.016 127.015 30.08C126.183 30.432 125.543 30.96 125.095 31.664C124.647 32.368 124.279 33.152 123.991 34.016C123.927 34.176 123.895 34.304 123.895 34.4C123.895 34.496 123.879 34.624 123.847 34.784C123.751 35.136 123.687 35.648 123.655 36.32C123.623 36.992 123.655 37.536 123.751 37.952V38.432C123.815 38.688 123.863 38.944 123.895 39.2C123.927 39.424 123.975 39.664 124.039 39.92C124.327 40.752 124.679 41.488 125.095 42.128C125.511 42.736 126.087 43.232 126.823 43.616C127.143 43.776 127.591 43.936 128.167 44.096C128.391 44.096 128.567 44.112 128.695 44.144C128.759 44.144 128.855 44.16 128.983 44.192C129.111 44.192 129.207 44.176 129.271 44.144H129.751C130.039 44.08 130.311 44.032 130.567 44C130.823 43.968 131.079 43.888 131.335 43.76C132.135 43.44 132.775 42.992 133.255 42.416C133.767 41.84 134.183 41.152 134.503 40.352ZM147.334 44.816C147.334 44.528 147.334 44.224 147.334 43.904C147.334 43.584 147.398 43.344 147.526 43.184C147.654 42.96 147.894 42.784 148.246 42.656C148.31 42.656 148.374 42.672 148.438 42.704C148.534 42.704 148.614 42.688 148.678 42.656H152.47C152.854 42.656 153.206 42.656 153.526 42.656C153.878 42.656 154.166 42.736 154.39 42.896C154.582 43.056 154.694 43.28 154.726 43.568C154.758 43.856 154.774 44.176 154.774 44.528V47.984C154.774 48.336 154.758 48.672 154.726 48.992C154.694 49.28 154.598 49.488 154.438 49.616C154.214 49.776 153.942 49.872 153.622 49.904C153.302 49.936 152.966 49.952 152.614 49.952H149.398C149.046 49.952 148.71 49.936 148.39 49.904C148.07 49.872 147.83 49.76 147.67 49.568C147.51 49.376 147.414 49.136 147.382 48.848C147.35 48.528 147.334 48.192 147.334 47.84V44.816ZM171.686 24.56C174.278 24.496 176.438 24.88 178.166 25.712C179.926 26.544 181.318 27.728 182.342 29.264C182.854 30.032 183.238 30.912 183.494 31.904C183.558 32.064 183.606 32.272 183.638 32.528C183.702 32.784 183.702 33.008 183.638 33.2C183.51 33.552 183.286 33.76 182.966 33.824C182.646 33.856 182.262 33.872 181.814 33.872H179.318C179.03 33.872 178.726 33.872 178.406 33.872C178.118 33.872 177.878 33.808 177.686 33.68C177.43 33.552 177.254 33.36 177.158 33.104C177.062 32.816 176.934 32.528 176.774 32.24C176.582 31.888 176.374 31.568 176.15 31.28C175.926 30.992 175.67 30.736 175.382 30.512C174.934 30.224 174.438 30 173.894 29.84C173.702 29.776 173.51 29.744 173.318 29.744C173.126 29.744 172.95 29.712 172.79 29.648H172.31C171.67 29.648 171.158 29.712 170.774 29.84C169.846 30.128 169.094 30.576 168.518 31.184C167.942 31.76 167.478 32.464 167.126 33.296C166.966 33.648 166.838 34.032 166.742 34.448C166.678 34.832 166.598 35.248 166.502 35.696C166.47 35.824 166.454 35.952 166.454 36.08C166.454 36.208 166.438 36.336 166.406 36.464C166.342 36.784 166.31 37.232 166.31 37.808C166.342 38.384 166.39 38.832 166.454 39.152C166.454 39.408 166.47 39.584 166.502 39.68C166.566 39.904 166.598 40.128 166.598 40.352C166.63 40.576 166.678 40.8 166.742 41.024C166.998 41.76 167.302 42.432 167.654 43.04C168.006 43.648 168.454 44.16 168.998 44.576C169.126 44.672 169.318 44.784 169.574 44.912C169.926 45.136 170.278 45.28 170.63 45.344C171.014 45.408 171.478 45.472 172.022 45.536C172.086 45.536 172.182 45.536 172.31 45.536C172.438 45.536 172.534 45.52 172.598 45.488H173.03C173.254 45.424 173.462 45.376 173.654 45.344C173.878 45.28 174.086 45.216 174.278 45.152C175.238 44.736 175.974 44.128 176.486 43.328C176.614 43.168 176.726 42.992 176.822 42.8C176.918 42.576 176.998 42.384 177.062 42.224C177.19 41.872 177.302 41.568 177.398 41.312C177.494 41.024 177.718 40.8 178.07 40.64C178.358 40.512 178.822 40.464 179.462 40.496C180.102 40.496 180.63 40.496 181.046 40.496C181.27 40.496 181.494 40.496 181.718 40.496C181.974 40.464 182.182 40.48 182.342 40.544H182.726C182.854 40.576 182.982 40.608 183.11 40.64C183.238 40.64 183.334 40.672 183.398 40.736C183.558 40.864 183.654 41.056 183.686 41.312C183.75 41.536 183.75 41.776 183.686 42.032C183.398 43.088 183.046 44.032 182.63 44.864C181.318 47.328 179.222 49.04 176.342 50C176.022 50.096 175.686 50.16 175.334 50.192C174.982 50.256 174.63 50.336 174.278 50.432C174.086 50.464 173.894 50.48 173.702 50.48C173.51 50.48 173.318 50.496 173.126 50.528H172.598C172.438 50.592 172.198 50.608 171.878 50.576C171.558 50.576 171.318 50.56 171.158 50.528C170.902 50.464 170.662 50.432 170.438 50.432C170.246 50.464 170.038 50.448 169.814 50.384C169.654 50.352 169.494 50.32 169.334 50.288C169.174 50.288 169.014 50.272 168.854 50.24C168.502 50.144 168.166 50.048 167.846 49.952C167.526 49.856 167.222 49.744 166.934 49.616C165.43 48.976 164.166 48.16 163.142 47.168C162.118 46.144 161.286 44.88 160.646 43.376C160.486 43.088 160.358 42.784 160.262 42.464C160.166 42.112 160.07 41.76 159.974 41.408C159.942 41.28 159.926 41.168 159.926 41.072C159.926 40.944 159.894 40.8 159.83 40.64C159.766 40.416 159.734 40.192 159.734 39.968C159.734 39.712 159.702 39.472 159.638 39.248V38.432C159.574 38.272 159.542 38.096 159.542 37.904C159.542 37.68 159.574 37.488 159.638 37.328C159.67 37.168 159.67 37.024 159.638 36.896C159.606 36.768 159.606 36.64 159.638 36.512C159.702 36.288 159.718 36.08 159.686 35.888C159.686 35.696 159.718 35.504 159.782 35.312C159.942 34.736 160.07 34.192 160.166 33.68C160.262 33.136 160.406 32.608 160.598 32.096C161.302 30.464 162.182 29.104 163.238 28.016C164.326 26.928 165.702 26.048 167.366 25.376C167.814 25.184 168.278 25.056 168.758 24.992C169.238 24.896 169.734 24.784 170.246 24.656C170.502 24.624 170.742 24.608 170.966 24.608C171.19 24.608 171.43 24.592 171.686 24.56ZM212.688 36.608C212.752 36.8 212.784 37.072 212.784 37.424C212.784 37.776 212.752 38.048 212.688 38.24V38.72C212.624 38.976 212.592 39.232 212.592 39.488C212.624 39.744 212.608 40 212.544 40.256C212.48 40.48 212.432 40.688 212.4 40.88C212.368 41.072 212.336 41.28 212.304 41.504C212.176 41.856 212.064 42.224 211.968 42.608C211.872 42.96 211.744 43.296 211.584 43.616C210.912 45.152 210.032 46.4 208.944 47.36C207.856 48.32 206.544 49.12 205.008 49.76C204.624 49.92 204.224 50.032 203.808 50.096C203.424 50.192 203.024 50.288 202.608 50.384C202.448 50.448 202.272 50.48 202.08 50.48C201.888 50.48 201.712 50.496 201.552 50.528C201.456 50.528 201.344 50.528 201.216 50.528C201.12 50.56 201.024 50.576 200.928 50.576C200.768 50.608 200.512 50.624 200.16 50.624C199.808 50.656 199.536 50.64 199.344 50.576H198.864C198.704 50.544 198.528 50.528 198.336 50.528C198.176 50.56 198.016 50.544 197.856 50.48C197.728 50.448 197.6 50.432 197.472 50.432C197.376 50.432 197.248 50.416 197.088 50.384C196.768 50.288 196.448 50.208 196.128 50.144C195.808 50.08 195.504 49.984 195.216 49.856C194.832 49.728 194.464 49.6 194.112 49.472C193.792 49.344 193.456 49.184 193.104 48.992C191.984 48.32 191.024 47.536 190.224 46.64C189.424 45.744 188.752 44.672 188.208 43.424C188.048 43.136 187.92 42.832 187.824 42.512C187.76 42.192 187.68 41.856 187.584 41.504C187.52 41.344 187.488 41.2 187.488 41.072C187.488 40.944 187.456 40.8 187.392 40.64C187.328 40.384 187.296 40.128 187.296 39.872C187.296 39.584 187.264 39.312 187.2 39.056C187.168 38.896 187.152 38.752 187.152 38.624C187.152 38.496 187.152 38.352 187.152 38.192C187.088 38 187.056 37.728 187.056 37.376C187.088 37.024 187.136 36.752 187.2 36.56V36.224C187.232 36.064 187.232 35.904 187.2 35.744C187.2 35.552 187.232 35.376 187.296 35.216C187.328 35.056 187.344 34.912 187.344 34.784C187.344 34.624 187.376 34.464 187.44 34.304C187.568 33.888 187.68 33.488 187.776 33.104C187.872 32.688 188 32.288 188.16 31.904C188.736 30.592 189.424 29.504 190.224 28.64C191.024 27.744 192 26.928 193.152 26.192C193.472 26.032 193.808 25.888 194.16 25.76C194.512 25.632 194.864 25.488 195.216 25.328C195.632 25.168 196.064 25.056 196.512 24.992C196.96 24.928 197.424 24.832 197.904 24.704C198.16 24.672 198.4 24.656 198.624 24.656C198.848 24.656 199.072 24.64 199.296 24.608C201.152 24.576 202.752 24.768 204.096 25.184C205.472 25.6 206.688 26.176 207.744 26.912C208.096 27.168 208.448 27.456 208.8 27.776C209.184 28.064 209.504 28.384 209.76 28.736C210.016 29.056 210.24 29.376 210.432 29.696C210.656 30.016 210.88 30.352 211.104 30.704C211.328 31.056 211.504 31.44 211.632 31.856C211.76 32.24 211.904 32.656 212.064 33.104C212.16 33.36 212.24 33.632 212.304 33.92C212.368 34.208 212.432 34.496 212.496 34.784C212.528 34.912 212.544 35.04 212.544 35.168C212.544 35.296 212.56 35.424 212.592 35.552C212.656 35.712 212.672 35.888 212.64 36.08C212.608 36.272 212.624 36.448 212.688 36.608ZM205.968 38.336C206 38.176 206.016 37.952 206.016 37.664C206.016 37.344 206 37.104 205.968 36.944V36.56C205.904 36.4 205.872 36.224 205.872 36.032C205.872 35.84 205.856 35.664 205.824 35.504C205.824 35.376 205.808 35.28 205.776 35.216C205.712 34.96 205.648 34.704 205.584 34.448C205.552 34.16 205.488 33.888 205.392 33.632C205.04 32.8 204.624 32.096 204.144 31.52C203.664 30.912 203.024 30.432 202.224 30.08C202.032 30.016 201.84 29.968 201.648 29.936C201.456 29.872 201.248 29.808 201.024 29.744C200.768 29.68 200.496 29.664 200.208 29.696C199.92 29.696 199.632 29.696 199.344 29.696C199.248 29.76 199.136 29.792 199.008 29.792C198.88 29.76 198.768 29.76 198.672 29.792C198.448 29.856 198.224 29.92 198 29.984C197.808 30.016 197.632 30.08 197.472 30.176C196.672 30.528 196.016 31.04 195.504 31.712C195.024 32.352 194.64 33.104 194.352 33.968C194.256 34.288 194.176 34.624 194.112 34.976C194.08 35.328 194.032 35.68 193.968 36.032C193.936 36.192 193.92 36.352 193.92 36.512C193.92 36.672 193.92 36.832 193.92 36.992C193.856 37.216 193.824 37.552 193.824 38C193.856 38.448 193.904 38.784 193.968 39.008V39.44C194.032 39.696 194.08 39.952 194.112 40.208C194.144 40.432 194.192 40.672 194.256 40.928C194.576 41.888 194.912 42.672 195.264 43.28C195.648 43.856 196.24 44.384 197.04 44.864C197.264 45.024 197.504 45.152 197.76 45.248C198.048 45.344 198.336 45.424 198.624 45.488C198.752 45.52 198.864 45.536 198.96 45.536C199.056 45.504 199.168 45.504 199.296 45.536C199.424 45.568 199.552 45.6 199.68 45.632C199.84 45.632 199.984 45.616 200.112 45.584H200.496C200.752 45.52 201.008 45.472 201.264 45.44C201.52 45.408 201.76 45.344 201.984 45.248C202.816 44.928 203.488 44.496 204 43.952C204.512 43.408 204.944 42.736 205.296 41.936C205.424 41.616 205.52 41.296 205.584 40.976C205.648 40.656 205.728 40.32 205.824 39.968C205.856 39.84 205.872 39.728 205.872 39.632C205.872 39.504 205.888 39.376 205.92 39.248C205.92 39.088 205.92 38.944 205.92 38.816C205.92 38.656 205.936 38.496 205.968 38.336Z" fill="currentColor"/>
<path d="M222 2C226.418 2 230 5.58172 230 10V72H10C5.58172 72 2 68.4183 2 64V2H222Z" stroke="currentColor" stroke-width="4"/>
</svg>
